<svg width="40" height="40" viewBox="0 0 40 40" fill="none" xmlns="http://www.w3.org/2000/svg">
<rect y="0.000244141" width="40" height="40" rx="20" fill="#2E4A3C"/>
<g clip-path="url(#clip0_1093_19621)">
<path d="M14.2939 21.9215C15.0897 21.9215 15.8661 21.6563 16.4937 21.171L11.447 16.1243C10.2306 17.6965 10.5218 19.9611 12.094 21.1775C12.7281 21.6563 13.498 21.9215 14.2939 21.9215Z" fill="white"/>
<path d="M29.3031 18.3183C29.3031 17.5224 29.0379 16.746 28.5526 16.1184L23.5059 21.1651C25.0781 22.3815 27.3362 22.0904 28.5526 20.5181C29.0379 19.8905 29.3031 19.1141 29.3031 18.3183Z" fill="white"/>
<path d="M31.8473 12.8245L29.6151 15.0567C31.4138 17.2112 31.1291 20.4204 28.9746 22.2191C27.0853 23.7979 24.3419 23.7979 22.4526 22.2191L20.0005 24.6713L17.5547 22.2256C15.4002 24.0243 12.191 23.7396 10.3923 21.5851C8.81353 19.6958 8.81353 16.9524 10.3923 15.0631L9.24704 13.9179L8.16005 12.8245C6.8466 14.9855 6.1543 17.47 6.1543 19.9999C6.1543 27.6476 12.3527 33.846 20.0005 33.846C27.6482 33.846 33.8466 27.6476 33.8466 19.9999C33.8531 17.47 33.1543 14.9855 31.8473 12.8245Z" fill="white"/>
<path d="M30.0158 10.4433C24.7426 4.91135 15.982 4.7043 10.45 9.97748C10.2883 10.1328 10.133 10.2881 9.9842 10.4433C9.64128 10.8057 9.31777 11.1809 9.01367 11.5756L20 22.5684L30.9864 11.5756C30.6887 11.1809 30.3587 10.8057 30.0158 10.4433ZM20 7.96526C23.2351 7.96526 26.2502 9.214 28.5147 11.4915L20 20.0062L11.4853 11.4915C13.7498 9.214 16.7649 7.96526 20 7.96526Z" fill="white"/>
</g>
<defs>
<clipPath id="clip0_1093_19621">
<rect width="27.6923" height="27.6923" fill="white" transform="translate(6.1543 6.15356)"/>
</clipPath>
</defs>
</svg>
