<svg width="40" height="40" viewBox="0 0 40 40" fill="none" xmlns="http://www.w3.org/2000/svg">
<path d="M20 -0.000488281C8.9543 -0.000488281 -5.34058e-05 8.95398 -5.34058e-05 19.9998C-5.34058e-05 31.0457 8.9543 40.0001 20 40.0001C31.0457 40.0001 40.0001 31.0457 40.0001 19.9998C40.0001 8.95398 31.0457 -0.000488281 20 -0.000488281ZM19.1333 8.08165C19.6887 7.80951 20.274 7.82815 20.8127 8.13384C22.6803 9.19816 24.5424 10.2718 26.3952 11.3566C26.9916 11.7071 27.2973 12.2681 27.2992 12.9578C27.3104 15.3753 27.3066 17.791 27.2992 20.2086C27.2992 20.298 27.2414 20.4285 27.1687 20.4714C26.4511 20.9001 25.7242 21.312 24.9357 21.7668C24.9357 21.6084 24.9357 21.4984 24.9357 21.3866C24.9357 18.9001 24.9283 16.4154 24.9413 13.9289C24.9432 13.4517 24.7791 13.1442 24.356 12.9037C22.1883 11.6716 20.0317 10.4172 17.8714 9.1702C17.7782 9.11614 17.6869 9.05836 17.5452 8.97262C18.1044 8.65761 18.6039 8.34074 19.1333 8.08165ZM18.7363 32.8146C18.6151 32.753 18.5256 32.7102 18.438 32.6598C15.5769 31.0102 12.7195 29.3494 9.84899 27.7129C9.04377 27.2544 8.67657 26.6001 8.68589 25.6812C8.70267 23.7277 8.69708 21.7743 8.68776 19.819C8.68403 18.9374 9.04191 18.298 9.81731 17.8581C11.8322 16.7118 13.836 15.5487 15.8397 14.3837C16.013 14.283 16.1398 14.2663 16.3206 14.3744C17.0121 14.79 17.7167 15.1871 18.4529 15.6121C18.3131 15.6959 18.2069 15.7593 18.0988 15.8227C15.9292 17.0753 13.7633 18.3316 11.588 19.5767C11.232 19.7799 11.0662 20.0446 11.0699 20.4584C11.0811 21.998 11.0829 23.5376 11.0699 25.0772C11.0662 25.5022 11.2358 25.7725 11.6011 25.9813C13.8956 27.2935 16.1808 28.6206 18.4734 29.9366C18.6673 30.0484 18.7493 30.164 18.7456 30.3951C18.7251 31.1817 18.7363 31.9702 18.7363 32.8146ZM18.7363 28.4044C18.5368 28.2907 18.3933 28.2106 18.2498 28.1267C16.4306 27.0773 14.6132 26.0241 12.7903 24.9822C12.5927 24.8703 12.52 24.7492 12.5219 24.5199C12.5349 23.3363 12.5293 22.1527 12.5256 20.9691C12.5256 20.8088 12.5498 20.6988 12.7083 20.6093C13.3793 20.2347 14.0429 19.8432 14.7083 19.4611C14.7567 19.4332 14.8089 19.4127 14.8965 19.3698C14.8965 19.8377 14.8965 20.2682 14.8965 20.6988C14.8965 21.4183 14.9077 22.1396 14.8928 22.8591C14.8835 23.2692 15.0419 23.5469 15.3998 23.7482C16.4306 24.3298 17.4483 24.9337 18.479 25.5134C18.6822 25.6271 18.7437 25.7539 18.74 25.9775C18.7269 26.766 18.7363 27.5545 18.7363 28.4044ZM16.6356 12.8683C16.2498 12.6409 15.9198 12.6428 15.534 12.8683C13.3718 14.1321 11.2004 15.3791 9.03073 16.6316C8.9394 16.6838 8.84434 16.7342 8.68217 16.8218C8.73996 15.9979 8.56288 15.2206 8.84434 14.4676C8.99718 14.0556 9.28422 13.7462 9.66446 13.5263C11.4743 12.4806 13.2824 11.433 15.096 10.393C15.7577 10.0127 16.4324 10.022 17.0941 10.4041C19.1538 11.5896 21.2116 12.7788 23.2656 13.9718C23.3532 14.0221 23.4632 14.1358 23.4632 14.2215C23.4781 15.0678 23.4725 15.9159 23.4725 16.8236C22.7251 16.3931 22.0354 15.9942 21.3458 15.5953C19.7745 14.6875 18.1994 13.7872 16.6356 12.8683ZM31.1091 26.1751C31.055 26.8406 30.6655 27.3121 30.0895 27.6439C27.8845 28.9114 25.6813 30.1864 23.4781 31.4576C22.7866 31.8565 22.0951 32.2554 21.4017 32.6543C21.3178 32.7027 21.2321 32.7437 21.1184 32.8034C21.1109 32.6878 21.1016 32.6039 21.1016 32.52C21.0997 31.7894 21.1053 31.0606 21.0979 30.3299C21.096 30.164 21.137 30.0633 21.2898 29.9757C24.5033 28.1267 27.7148 26.2721 30.9245 24.4193C30.973 24.3913 31.0271 24.3689 31.1184 24.3261C31.1184 24.9747 31.1575 25.5787 31.1091 26.1751ZM31.1259 21.5749C31.1203 22.3316 30.7121 22.8629 30.0653 23.2357C27.5527 24.6802 25.042 26.1322 22.5312 27.5824C22.0727 27.8471 21.6123 28.1099 21.1202 28.3932C21.1128 28.2684 21.1035 28.1863 21.1035 28.1025C21.1016 27.383 21.1109 26.6616 21.0979 25.9421C21.0941 25.7371 21.1631 25.629 21.3402 25.5265C23.6235 24.2161 25.8994 22.8908 28.1864 21.5879C28.5928 21.3568 28.7717 21.0716 28.768 20.5944C28.7512 18.1079 28.7605 15.6214 28.7605 13.1348C28.7605 13.0174 28.7605 12.8981 28.7605 12.7005C29.357 13.0603 29.9162 13.3567 30.4269 13.7183C30.8929 14.0482 31.1277 14.5477 31.1296 15.1237C31.1352 17.2728 31.1408 19.4239 31.1259 21.5749Z" fill="black"/>
</svg>
